<?xml version="1.0" standalone="no"?><!DOCTYPE svg PUBLIC "-//W3C//DTD SVG 1.1//EN" "http://www.w3.org/Graphics/SVG/1.1/DTD/svg11.dtd"><svg t="1589879033158" class="icon" viewBox="0 0 1024 1024" version="1.1" xmlns="http://www.w3.org/2000/svg" p-id="1188" width="16" height="16" xmlns:xlink="http://www.w3.org/1999/xlink"><defs><style type="text/css"></style></defs><path d="M284.714667 462.506667a27.733333 27.733333 0 1 1 0-55.466667h284.586666a27.733333 27.733333 0 1 1 0 55.466667h-284.586666z m0 192a27.733333 27.733333 0 1 1 0-55.466667h455.253333a27.733333 27.733333 0 1 1 0 55.466667H284.672zM895.146667 51.925333a27.733333 27.733333 0 1 1 38.826666 39.594667L703.061333 317.866667a27.733333 27.733333 0 1 1-38.826666-39.637334l230.826666-226.346666z m-12.245334 209.237334a27.733333 27.733333 0 1 1 55.466667 0v606.72a113.322667 113.322667 0 0 1-112.981333 113.365333H199.253333a112.896 112.896 0 0 1-112.981333-113.237333V155.818667A113.28 113.28 0 0 1 199.381333 42.581333h528.853334a27.733333 27.733333 0 1 1 0 55.466667H199.381333c-31.744 0-57.685333 25.941333-57.685333 57.770667v712.149333c0 32.128 25.6 57.770667 57.514667 57.770667h626.133333c31.573333 0 57.514667-25.984 57.514667-57.856V261.12z" fill="#909399" p-id="1189"></path></svg>