<?xml version="1.0" standalone="no"?>
<!DOCTYPE svg PUBLIC "-//W3C//DTD SVG 1.1//EN" "http://www.w3.org/Graphics/SVG/1.1/DTD/svg11.dtd">
<svg t="1572858716937" class="icon" viewBox="0 0 1024 1024" version="1.1" xmlns="http://www.w3.org/2000/svg" p-id="3918" xmlns:xlink="http://www.w3.org/1999/xlink" width="200" height="200">
  <defs>
    <style type="text/css"></style>
  </defs>
  <path fill="#909399" d="M861.8 953.1H163c-62.9-0.2-113.7-48.8-113.7-108.6V433.3c-0.1-59.8 50.7-108.5 113.6-108.7h698.8v-0.1c63 0.2 113.9 48.8 113.8 108.7v411.4c0.1 59.8-50.8 108.4-113.7 108.5zM164 390.6c-26.8 0-48.6 20.6-48.6 45.8v404.7c0 25.2 21.8 45.9 48.6 45.9h696.9c26.8 0 48.6-20.7 48.6-45.9V436.5c0-25.3-21.8-45.8-48.6-45.8H164v-0.1z m348.5 430.2c-18.3 0-33.1-13.6-33.1-30.4l-0.1-68.8h-99.2c-13.2 0-33.1-10.3-33.1-33.1-0.1-26.9 27.9-35.2 35.5-35.2h96.9l-0.1-30.9h-99.2c-13.2-0.1-33.1-11.4-33.1-33.1 0-26.3 26.9-33.1 33.1-33.1h66.2l-55.4-42.3c-10.8-12.2-17.1-34-5-45.1 6.5-5.9 14.9-8.9 23.4-8.9 7.5 0 15 2.3 21.1 7l83.9 71.3 84.1-71.3c3-2.7 10.9-4.8 19.1-4.8 8.6 0 17.4 2.3 20.8 8.3 7.2 12.8 10.1 29.4-10.8 48.4L578.9 556h66.2c13.2 0 33.1 10.3 33.1 33.1 0 27.5-27.2 33-33.1 33.1h-99.3l-0.2 31h97.1c8.7 0.1 35.4 9.8 35.4 35.1-0.1 13.2-6.5 33.1-33.1 33.1h-99.3v68.8c-0.1 17-15 30.6-33.2 30.6z m363.4-543.6H148.5V211H876v66.2h-0.1zM810.3 159H214.7V92.8h595.6V159z" p-id="3919"></path>
</svg>